<svg id="visual" viewBox="0 0 960 200" width="960" height="200"
	xmlns="http://www.w3.org/2000/svg"
	xmlns:xlink="http://www.w3.org/1999/xlink" version="1.1">
	<rect x="0" y="0" width="960" height="200" fill="#001a2e"></rect>
	<path d="M0 112L22.8 116.7C45.7 121.3 91.3 130.7 137 130.3C182.7 130 228.3 120 274 115.2C319.7 110.3 365.3 110.7 411.2 113.5C457 116.3 503 121.7 548.8 120.5C594.7 119.3 640.3 111.7 686 111.5C731.7 111.3 777.3 118.7 823 119.2C868.7 119.7 914.3 113.3 937.2 110.2L960 107L960 0L937.2 0C914.3 0 868.7 0 823 0C777.3 0 731.7 0 686 0C640.3 0 594.7 0 548.8 0C503 0 457 0 411.2 0C365.3 0 319.7 0 274 0C228.3 0 182.7 0 137 0C91.3 0 45.7 0 22.8 0L0 0Z" fill="#c62368"></path>
	<path d="M0 88L22.8 92.5C45.7 97 91.3 106 137 111.2C182.7 116.3 228.3 117.7 274 117C319.7 116.3 365.3 113.7 411.2 109.3C457 105 503 99 548.8 97C594.7 95 640.3 97 686 103.7C731.7 110.3 777.3 121.7 823 122.7C868.7 123.7 914.3 114.3 937.2 109.7L960 105L960 0L937.2 0C914.3 0 868.7 0 823 0C777.3 0 731.7 0 686 0C640.3 0 594.7 0 548.8 0C503 0 457 0 411.2 0C365.3 0 319.7 0 274 0C228.3 0 182.7 0 137 0C91.3 0 45.7 0 22.8 0L0 0Z" fill="#d53867"></path>
	<path d="M0 62L22.8 66.8C45.7 71.7 91.3 81.3 137 81.5C182.7 81.7 228.3 72.3 274 73C319.7 73.7 365.3 84.3 411.2 86.3C457 88.3 503 81.7 548.8 78.8C594.7 76 640.3 77 686 78.2C731.7 79.3 777.3 80.7 823 82.7C868.7 84.7 914.3 87.3 937.2 88.7L960 90L960 0L937.2 0C914.3 0 868.7 0 823 0C777.3 0 731.7 0 686 0C640.3 0 594.7 0 548.8 0C503 0 457 0 411.2 0C365.3 0 319.7 0 274 0C228.3 0 182.7 0 137 0C91.3 0 45.7 0 22.8 0L0 0Z" fill="#e34c67"></path>
	<path d="M0 46L22.8 45.8C45.7 45.7 91.3 45.3 137 48.7C182.7 52 228.3 59 274 61.2C319.7 63.3 365.3 60.7 411.2 58.8C457 57 503 56 548.8 59.2C594.7 62.3 640.3 69.7 686 71C731.7 72.3 777.3 67.7 823 64.5C868.7 61.3 914.3 59.7 937.2 58.8L960 58L960 0L937.2 0C914.3 0 868.7 0 823 0C777.3 0 731.7 0 686 0C640.3 0 594.7 0 548.8 0C503 0 457 0 411.2 0C365.3 0 319.7 0 274 0C228.3 0 182.7 0 137 0C91.3 0 45.7 0 22.8 0L0 0Z" fill="#ef5f67"></path>
	<path d="M0 28L22.8 26.7C45.7 25.3 91.3 22.7 137 25.2C182.7 27.7 228.3 35.3 274 39.8C319.7 44.3 365.3 45.7 411.2 42.2C457 38.7 503 30.3 548.8 28.5C594.7 26.7 640.3 31.3 686 33.7C731.7 36 777.3 36 823 33.2C868.7 30.3 914.3 24.7 937.2 21.8L960 19L960 0L937.2 0C914.3 0 868.7 0 823 0C777.3 0 731.7 0 686 0C640.3 0 594.7 0 548.8 0C503 0 457 0 411.2 0C365.3 0 319.7 0 274 0C228.3 0 182.7 0 137 0C91.3 0 45.7 0 22.8 0L0 0Z" fill="#fa7268"></path>
</svg>