<svg id="visual" viewBox="0 0 960 200" width="960" height="200"
	xmlns="http://www.w3.org/2000/svg"
	xmlns:xlink="http://www.w3.org/1999/xlink" version="1.1">
	<rect x="0" y="0" width="960" height="200" fill="#001a2e"></rect>
	<path d="M0 97L22.8 92.3C45.7 87.7 91.3 78.3 137 75.8C182.7 73.3 228.3 77.7 274 75.8C319.7 74 365.3 66 411.2 66.5C457 67 503 76 548.8 81C594.7 86 640.3 87 686 82.8C731.7 78.7 777.3 69.3 823 67.8C868.7 66.3 914.3 72.7 937.2 75.8L960 79L960 201L937.2 201C914.3 201 868.7 201 823 201C777.3 201 731.7 201 686 201C640.3 201 594.7 201 548.8 201C503 201 457 201 411.2 201C365.3 201 319.7 201 274 201C228.3 201 182.7 201 137 201C91.3 201 45.7 201 22.8 201L0 201Z" fill="#c62368"></path>
	<path d="M0 76L22.8 80.8C45.7 85.7 91.3 95.3 137 95.3C182.7 95.3 228.3 85.7 274 81.8C319.7 78 365.3 80 411.2 84.7C457 89.3 503 96.7 548.8 96.8C594.7 97 640.3 90 686 84.2C731.7 78.3 777.3 73.7 823 72.7C868.7 71.7 914.3 74.3 937.2 75.7L960 77L960 201L937.2 201C914.3 201 868.7 201 823 201C777.3 201 731.7 201 686 201C640.3 201 594.7 201 548.8 201C503 201 457 201 411.2 201C365.3 201 319.7 201 274 201C228.3 201 182.7 201 137 201C91.3 201 45.7 201 22.8 201L0 201Z" fill="#d53867"></path>
	<path d="M0 127L22.8 128.5C45.7 130 91.3 133 137 129.2C182.7 125.3 228.3 114.7 274 115.5C319.7 116.3 365.3 128.7 411.2 132.2C457 135.7 503 130.3 548.8 128C594.7 125.7 640.3 126.3 686 127.3C731.7 128.3 777.3 129.7 823 127.2C868.7 124.7 914.3 118.3 937.2 115.2L960 112L960 201L937.2 201C914.3 201 868.7 201 823 201C777.3 201 731.7 201 686 201C640.3 201 594.7 201 548.8 201C503 201 457 201 411.2 201C365.3 201 319.7 201 274 201C228.3 201 182.7 201 137 201C91.3 201 45.7 201 22.8 201L0 201Z" fill="#e34c67"></path>
	<path d="M0 158L22.8 156.5C45.7 155 91.3 152 137 149C182.7 146 228.3 143 274 138.5C319.7 134 365.3 128 411.2 130C457 132 503 142 548.8 142.2C594.7 142.3 640.3 132.7 686 127.3C731.7 122 777.3 121 823 120.7C868.7 120.3 914.3 120.7 937.2 120.8L960 121L960 201L937.2 201C914.3 201 868.7 201 823 201C777.3 201 731.7 201 686 201C640.3 201 594.7 201 548.8 201C503 201 457 201 411.2 201C365.3 201 319.7 201 274 201C228.3 201 182.7 201 137 201C91.3 201 45.7 201 22.8 201L0 201Z" fill="#ef5f67"></path>
	<path d="M0 151L22.8 152C45.7 153 91.3 155 137 158.2C182.7 161.3 228.3 165.7 274 168.5C319.7 171.3 365.3 172.7 411.2 174.5C457 176.3 503 178.7 548.8 178.5C594.7 178.3 640.3 175.7 686 170.7C731.7 165.7 777.3 158.3 823 159.8C868.7 161.3 914.3 171.7 937.2 176.8L960 182L960 201L937.2 201C914.3 201 868.7 201 823 201C777.3 201 731.7 201 686 201C640.3 201 594.7 201 548.8 201C503 201 457 201 411.2 201C365.3 201 319.7 201 274 201C228.3 201 182.7 201 137 201C91.3 201 45.7 201 22.8 201L0 201Z" fill="#fa7268"></path>
</svg>